<svg xmlns="http://www.w3.org/2000/svg" version="1.1" viewBox="-5.0 -10.0 110.0 135.0">
 <path d="m91.668 50c0-2.8516-0.77344-5.6484-2.2422-8.0938s-3.5742-4.4414-6.0938-5.7812c1.0117-3.6133 0.69922-7.4688-0.87109-10.871-1.5742-3.4062-4.3086-6.1406-7.7148-7.7148-3.4023-1.5703-7.2578-1.8828-10.871-0.87109-1.8281-3.3281-4.7969-5.8906-8.3555-7.2148-3.5625-1.3242-7.4766-1.3242-11.039 0-3.5586 1.3242-6.5273 3.8867-8.3555 7.2148-3.6133-1.0117-7.4688-0.69922-10.871 0.87109-3.4062 1.5742-6.1406 4.3086-7.7148 7.7148-1.5703 3.4023-1.8828 7.2578-0.87109 10.871-3.3281 1.8281-5.8906 4.7969-7.2148 8.3555-1.3242 3.5625-1.3242 7.4766 0 11.039 1.3242 3.5586 3.8867 6.5273 7.2148 8.3555-1.0117 3.6133-0.69922 7.4688 0.87109 10.871 1.5742 3.4062 4.3086 6.1406 7.7148 7.7148 3.4023 1.5703 7.2578 1.8828 10.871 0.87109 1.8281 3.3281 4.7969 5.8906 8.3555 7.2148 3.5625 1.3242 7.4766 1.3242 11.039 0 3.5586-1.3242 6.5273-3.8867 8.3555-7.2148 3.6406 1.0625 7.543 0.78125 10.992-0.79688 3.4492-1.5781 6.2148-4.3438 7.793-7.793 1.5781-3.4492 1.8594-7.3516 0.79688-10.992 2.4766-1.3438 4.5469-3.332 5.9883-5.75 1.4453-2.418 2.2109-5.1836 2.2227-8zm-16.336-25.332c2.8203 2.8203 3.6719 7.0547 2.168 10.75l-8.332 3.418v-0.003907c-2.0039-3.332-4.793-6.1211-8.125-8.125l3.375-8.332c3.7656-1.5117 8.0742-0.60938 10.914 2.293zm-17.375 39.793v-0.003907c-0.51953 0.29297-1.0625 0.54297-1.625 0.75-0.55078 0.25391-1.1211 0.46094-1.707 0.625-3.0273 0.83594-6.2227 0.83594-9.25 0-0.58594-0.16406-1.1562-0.37109-1.707-0.625l-1.625-0.75c-2.7109-1.543-4.957-3.7891-6.5-6.5-0.28516-0.52344-0.53516-1.0664-0.75-1.625-0.25391-0.55078-0.46094-1.1211-0.625-1.707-0.83594-3.0273-0.83594-6.2227 0-9.25 0.16406-0.58594 0.37109-1.1562 0.625-1.707 0.21484-0.55859 0.46484-1.1016 0.75-1.625 1.543-2.7109 3.7891-4.957 6.5-6.5l1.625-0.75c0.55078-0.25391 1.1211-0.46094 1.707-0.625 3.0273-0.83594 6.2227-0.83594 9.25 0 0.58594 0.16406 1.1562 0.37109 1.707 0.625 0.5625 0.20703 1.1055 0.45703 1.625 0.75 2.7109 1.543 4.957 3.7891 6.5 6.5 0.28516 0.52344 0.53516 1.0664 0.75 1.625 0.25391 0.55078 0.46094 1.1211 0.625 1.707 0.83594 3.0273 0.83594 6.2227 0 9.25-0.16406 0.58594-0.37109 1.1562-0.625 1.707-0.21484 0.55859-0.46484 1.1016-0.75 1.625-1.543 2.7109-3.7891 4.957-6.5 6.5zm-7.957-50.293c4.0273-0.019531 7.668 2.4023 9.207 6.125l-3.418 8.332h0.003907c-3.8008-0.98047-7.7852-0.98047-11.586 0l-3.418-8.332h0.003907c1.5391-3.7227 5.1797-6.1445 9.207-6.125zm-25.332 10.5c2.832-2.8008 7.0547-3.6484 10.75-2.168l3.418 8.332h-0.003907c-3.3555 2.0625-6.1484 4.9258-8.125 8.3359l-8.332-3.418c-1.625-3.8086-0.71094-8.2305 2.293-11.082zm-10.5 25.332c-0.019531-4.0273 2.4023-7.668 6.125-9.207l8.332 3.418v-0.003907c-0.53125 1.8906-0.83984 3.832-0.91797 5.793 0.019531 1.957 0.28516 3.9023 0.79297 5.793l-8.332 3.418v-0.003907c-3.6758-1.5781-6.0391-5.207-6-9.207zm10.5 25.332c-2.8203-2.8203-3.6719-7.0547-2.168-10.75l8.332-3.418v0.003907c2.0625 3.3555 4.9258 6.1484 8.3359 8.125l-3.418 8.332c-3.8125 1.6016-8.2188 0.69141-11.082-2.293zm25.332 10.5c-4.0273 0.019531-7.668-2.4023-9.207-6.125l3.418-8.332h-0.003907c1.8945 0.47656 3.8398 0.72656 5.793 0.75 1.957-0.015625 3.9023-0.28516 5.793-0.79297l3.418 8.332-0.003907 0.003907c-1.5273 3.7383-5.168 6.1758-9.207 6.1641zm25.332-10.5c-2.8438 2.8047-7.082 3.6562-10.789 2.168l-3.375-8.332c3.332-2.0039 6.1211-4.793 8.125-8.125l8.332 3.418v-0.003907c1.5312 3.7539 0.62109 8.0586-2.293 10.875zm4.375-16.125-8.332-3.418v0.003907c1.0547-3.7891 1.0547-7.7969 0-11.586l8.332-3.418v0.003907c3.6992 1.5664 6.1016 5.1914 6.1016 9.207s-2.4023 7.6406-6.1016 9.207z"/>
<text x="0.0" y="117.5" font-size="5.0" font-weight="bold" font-family="Arbeit Regular, Helvetica, Arial-Unicode, Arial, Sans-serif" fill="#000000">Created by GlyphGenius Studio</text><text x="0.0" y="122.5" font-size="5.0" font-weight="bold" font-family="Arbeit Regular, Helvetica, Arial-Unicode, Arial, Sans-serif" fill="#000000">from Noun Project</text></svg>