<svg xmlns="http://www.w3.org/2000/svg" version="1.1" viewBox="-5.0 -10.0 110.0 135.0">
 <path d="m91.668 50c0-2.8516-0.77344-5.6484-2.2422-8.0938s-3.5742-4.4414-6.0938-5.7812c1.0117-3.6133 0.69922-7.4688-0.87109-10.871-1.5742-3.4062-4.3086-6.1406-7.7148-7.7148-3.4023-1.5703-7.2578-1.8828-10.871-0.87109-1.8281-3.3281-4.7969-5.8906-8.3555-7.2148-3.5625-1.3242-7.4766-1.3242-11.039 0-3.5586 1.3242-6.5273 3.8867-8.3555 7.2148-3.6133-1.0117-7.4688-0.69922-10.871 0.87109-3.4062 1.5742-6.1406 4.3086-7.7148 7.7148-1.5703 3.4023-1.8828 7.2578-0.87109 10.871-3.3281 1.8281-5.8906 4.7969-7.2148 8.3555-1.3242 3.5625-1.3242 7.4766 0 11.039 1.3242 3.5586 3.8867 6.5273 7.2148 8.3555-1.0117 3.6133-0.69922 7.4688 0.87109 10.871 1.5742 3.4062 4.3086 6.1406 7.7148 7.7148 3.4023 1.5703 7.2578 1.8828 10.871 0.87109 1.8281 3.3281 4.7969 5.8906 8.3555 7.2148 3.5625 1.3242 7.4766 1.3242 11.039 0 3.5586-1.3242 6.5273-3.8867 8.3555-7.2148 3.6406 1.0625 7.543 0.78125 10.992-0.79688 3.4492-1.5781 6.2148-4.3438 7.793-7.793 1.5781-3.4492 1.8594-7.3516 0.79688-10.992 2.4766-1.3438 4.5469-3.332 5.9883-5.75 1.4453-2.418 2.2109-5.1836 2.2227-8zm-37.043 15.832c-3.0273 0.83594-6.2227 0.83594-9.25 0-0.58594-0.16406-1.1562-0.37109-1.707-0.625l-1.625-0.75c-2.7109-1.543-4.957-3.7891-6.5-6.5-0.28516-0.52344-0.53516-1.0664-0.75-1.625-0.25391-0.55078-0.46094-1.1211-0.625-1.707-0.83594-3.0273-0.83594-6.2227 0-9.25 0.16406-0.58594 0.37109-1.1562 0.625-1.707 0.21484-0.55859 0.46484-1.1016 0.75-1.625 1.543-2.7109 3.7891-4.957 6.5-6.5l1.625-0.75c0.55078-0.25391 1.1211-0.46094 1.707-0.625 3.0273-0.83594 6.2227-0.83594 9.25 0 0.58594 0.16406 1.1562 0.37109 1.707 0.625 0.5625 0.20703 1.1055 0.45703 1.625 0.75 2.7109 1.543 4.957 3.7891 6.5 6.5 0.28516 0.52344 0.53516 1.0664 0.75 1.625 0.25391 0.55078 0.46094 1.1211 0.625 1.707 0.83594 3.0273 0.83594 6.2227 0 9.25-0.16406 0.58594-0.37109 1.1562-0.625 1.707-0.21484 0.55859-0.46484 1.1016-0.75 1.625-1.543 2.7109-3.7891 4.957-6.5 6.5-0.51953 0.29297-1.0625 0.54297-1.625 0.75-0.55078 0.25391-1.1211 0.46094-1.707 0.625z"/>
<text x="0.0" y="117.5" font-size="5.0" font-weight="bold" font-family="Arbeit Regular, Helvetica, Arial-Unicode, Arial, Sans-serif" fill="#000000">Created by GlyphGenius Studio</text><text x="0.0" y="122.5" font-size="5.0" font-weight="bold" font-family="Arbeit Regular, Helvetica, Arial-Unicode, Arial, Sans-serif" fill="#000000">from Noun Project</text></svg>