<svg xmlns="http://www.w3.org/2000/svg" x="0px" y="0px" width="100" height="100" viewBox="0 0 24 24">
<path d="M 5.0234375 4.0058594 C 3.5554757 4.0058594 2.2032139 5.1067394 2.0332031 6.6972656 C 2.0299745 6.7183331 2.0301362 6.7404734 2.0273438 6.7617188 C 2.0197384 6.8504475 2 6.9337743 2 7.0253906 L 2 7.1328125 C 1.9999167 7.1421495 1.9980469 7.1507909 1.9980469 7.1601562 L 1.9980469 8.5488281 A 1.250125 1.250125 0 0 0 2 8.5898438 L 2 18 C 2 19.657 3.343 21 5 21 L 7 21 C 7.552 21 8 20.552 8 20 L 8 12.818359 L 11.357422 14.808594 A 1.250125 1.250125 0 0 0 12.628906 14.8125 L 16 12.832031 L 16 20 C 16 20.552 16.448 21 17 21 L 19 21 C 20.657 21 22 19.657 22 18 L 22 7.0253906 C 22 5.2553906 20.546563 4.0058594 18.976562 4.0058594 C 18.813708 4.0058594 18.650062 4.0249963 18.486328 4.0527344 C 17.991669 4.0924299 17.497367 4.2418374 17.042969 4.5351562 L 11.994141 7.5722656 L 6.9472656 4.5429688 C 6.5209975 4.267808 6.0596597 4.1190379 5.5957031 4.0683594 C 5.4048833 4.0306085 5.2132675 4.0058594 5.0234375 4.0058594 z M 18.925781 6.5214844 C 18.999351 6.5309624 19.076952 6.5309947 19.140625 6.5625 C 19.348931 6.6655702 19.492188 6.878487 19.492188 7.1503906 L 19.492188 7.8789062 L 18.5 8.4628906 L 18.5 6.7246094 L 18.705078 6.59375 C 18.780764 6.5457341 18.851821 6.5300536 18.925781 6.5214844 z M 5.0898438 6.5273438 C 5.1580977 6.5378262 5.2254241 6.5491808 5.2949219 6.59375 L 5.5 6.7246094 L 5.5 8.4296875 L 4.5 7.8378906 L 4.5 7.1445312 C 4.5076613 6.7884989 4.7678825 6.5562191 5.0898438 6.5273438 z M 16 8.0800781 L 16 9.9316406 L 11.998047 12.283203 L 8 9.9121094 L 8 8.0898438 L 11.351562 10.101562 A 1.250125 1.250125 0 0 0 12.638672 10.101562 L 16 8.0800781 z M 4.5 10.744141 L 5.5 11.337891 L 5.5 18.5 L 5 18.5 C 4.724 18.5 4.5 18.276 4.5 18 L 4.5 10.744141 z M 19.5 10.773438 L 19.5 18 C 19.5 18.276 19.276 18.5 19 18.5 L 18.5 18.5 L 18.5 11.361328 L 19.5 10.773438 z"></path>
</svg>