<svg xmlns="http://www.w3.org/2000/svg" version="1.1" viewBox="-5.0 -10.0 110.0 135.0">
 <path d="m27.41 12.84c-1.8125 0-2.7266 2.2031-1.4453 3.4844s3.4844 0.37109 3.4844-1.4453c0.003906-1.125-0.91016-2.0391-2.0391-2.0391zm22.59 22.812c8.4414 0 15.285 6.8438 15.285 15.285s-6.8438 15.285-15.285 15.285-15.285-6.8438-15.285-15.285 6.8438-15.285 15.285-15.285zm9.457 5.8242c-5.2227-5.2227-13.691-5.2227-18.918 0-5.2227 5.2227-5.2227 13.691 0 18.918 5.2227 5.2227 13.691 5.2227 18.918 0 5.2266-5.2227 5.2227-13.695 0-18.918zm33.25 1.168c0 3.5078-4.2617 5.2773-6.7422 2.793-0.5-0.5-0.86719-1.1328-1.0391-1.8398h-10.18c0.61328 2.0703 0.97266 4.2461 1.043 6.4961l19.004-0.10938c0.60156-0.03125 1.043 0.39844 1.043 0.94922v8.0703c0 0.46484-0.33203 0.85156-0.76953 0.9375l-10.531 3.043c-0.46484 1.332-0.98047 2.5742-1.5977 3.8477l5.3398 9.6719c0.20703 0.37891 0.13281 0.83984-0.16016 1.1328l-11.414 11.418c-0.32031 0.32031-0.81641 0.36719-1.1836 0.13281l-9.6211-5.3086c-1.2734 0.61719-2.5195 1.1328-3.8477 1.5977l-3.0664 10.609c-0.12109 0.41797-0.5 0.6875-0.91406 0.6875v0.003906l-16.141-0.003906c-0.46484 0-0.85156-0.33203-0.9375-0.76953l-3.043-10.531c-1.332-0.46484-2.5742-0.98047-3.8477-1.5977l-9.6719 5.3398c-0.37891 0.20703-0.83984 0.13281-1.1328-0.16016l-11.418-11.414c-0.32031-0.32031-0.36719-0.81641-0.13281-1.1836l5.3086-9.6211c-0.61719-1.2734-1.1328-2.5195-1.5977-3.8477l-10.605-3.0664c-0.41406-0.12109-0.6875-0.5-0.6875-0.91406v-8.0703c0-0.55078 0.4375-0.97656 1.0391-0.94922h19.012c0.082031-2.2109 0.44141-4.3516 1.043-6.3867h-9.9336c-0.73438 2.957-4.4453 4.0195-6.6289 1.8398-2.4805-2.4805-0.71484-6.7422 2.793-6.7422 1.8359 0 3.4023 1.2578 3.8359 2.9961h10.582c0.97656-2.5391 2.3398-4.8828 4.0195-6.9648h-12.629c-0.53125-0.003907-0.92578-0.45312-0.92969-0.95312v-7.1133c-1.7383-0.42969-2.9922-1.9961-2.9922-3.8359h-0.003906c0-3.5078 4.2617-5.2773 6.7422-2.793 2.1797 2.1797 1.1172 5.8945-1.8398 6.6289v6.1602h13.355c1.9492-1.9766 4.2109-3.6367 6.7109-4.9062v-12.082h-7.0938c-0.73438 2.957-4.4453 4.0195-6.6289 1.8398-2.4844-2.4844-0.71484-6.7422 2.793-6.7422 1.8359 0 3.4023 1.2578 3.8359 2.9961h8.0469c0.52734 0 0.95312 0.42578 0.95312 0.95312v12.16c2.7656-1.1289 5.7734-1.793 8.9219-1.8945v-14.137c-2.957-0.73438-4.0195-4.4453-1.8398-6.6289 2.4805-2.4805 6.7422-0.71484 6.7422 2.793 0 1.8359-1.2578 3.4023-2.9961 3.8359v14.141c3.1523 0.12891 6.1602 0.82422 8.918 1.9883l0.007812-12.336c0-0.52734 0.42578-0.95703 0.95312-0.95703h8.0117c0.73047-2.8828 4.3555-3.9102 6.4844-1.7812 2.4297 2.4297 0.69922 6.6016-2.7344 6.6016-1.7891 0-3.3203-1.2227-3.75-2.9141h-7.0547v12.277c2.4258 1.2617 4.6328 2.9062 6.5273 4.8398l12.605-0.054688v-6.168c-2.957-0.73438-4.0195-4.4453-1.8398-6.6289 2.4844-2.4805 6.7422-0.71484 6.7422 2.793 0 1.8359-1.2578 3.4023-2.9961 3.8359v7.1133c0 0.54688-0.4375 0.97266-1.0352 0.94922l-11.797 0.050781c1.6641 2.0664 3.0117 4.3945 3.9805 6.9141h10.828c0.73438-2.957 4.4453-4.0195 6.6289-1.8398 0.71094 0.73047 1.1523 1.7188 1.1523 2.8086zm-2.5078 1.4414c1.2812-1.2812 0.37109-3.4844-1.4453-3.4844-1.8125 0-2.7266 2.2031-1.4414 3.4844 0.80078 0.79687 2.0898 0.79687 2.8867 0zm-80.754-1.4414c0 1.8125 2.2031 2.7266 3.4844 1.4453s0.37109-3.4844-1.4453-3.4844c-1.125-0.003907-2.0391 0.91016-2.0391 2.0391zm74.59-19.82c0-1.8125-2.2031-2.7266-3.4844-1.4453s-0.37109 3.4844 1.4453 3.4844c1.125 0.003907 2.0391-0.91016 2.0391-2.0391zm-68.758 0h-0.003906c0 1.8047 2.2031 2.7305 3.4883 1.4453 1.2812-1.2812 0.37109-3.4844-1.4453-3.4844-1.125 0-2.0391 0.91016-2.0391 2.0391zm17.742 11.301c-0.089843 0.23047-0.27344 0.41797-0.5 0.51953-3.9805 4.2695-6.4141 9.9961-6.4141 16.293 0 13.195 10.699 23.895 23.895 23.895s23.895-10.699 23.895-23.895c0-13.199-10.699-23.895-23.895-23.895-6.6406 0-12.645 2.707-16.98 7.082zm17.102-28.988c-1.8125 0-2.7266 2.2031-1.4453 3.4844s3.4844 0.37109 3.4844-1.4453c0.003906-1.125-0.91016-2.0391-2.0391-2.0391zm23.973 8.2812c-1.2305-1.2305-3.3438-0.35547-3.3438 1.3867 0 1.7383 2.1133 2.6133 3.3438 1.3828 0.76562-0.76172 0.76562-2.0039 0-2.7695zm-49.879 38.469h-18.145v6.4062l10.367 2.9922c0.30078 0.078125 0.55859 0.30078 0.66797 0.62109 0.39844 1.1875 1.2695 3.4023 1.8477 4.4688 0.16406 0.28125 0.18359 0.63672 0.015625 0.94531l-5.2305 9.4766 10.402 10.402 9.4766-5.2305v0.003906c0.26562-0.14453 0.59375-0.16406 0.88281-0.015625 1.4492 0.72266 2.9883 1.3594 4.5273 1.8789 0.28516 0.097656 0.51953 0.32422 0.61328 0.63672l3.0039 10.395h14.715l2.9922-10.367c0.078126-0.30078 0.30078-0.55859 0.62109-0.66797 1.1875-0.39844 3.4023-1.2695 4.4688-1.8477 0.28125-0.16406 0.63672-0.18359 0.94531-0.015625l9.4766 5.2305 10.402-10.402-5.2305-9.4766h0.003906c-0.14453-0.26172-0.16406-0.59375-0.015624-0.88281 0.72656-1.4492 1.3594-2.9883 1.8789-4.5273 0.097656-0.28516 0.32422-0.51953 0.63672-0.61328l10.398-3.0039v-6.4023l-18.148 0.10547c-0.56641 13.785-11.922 24.742-25.789 24.742-13.91 0-25.285-11.016-25.785-24.852z" fill-rule="evenodd"/>
<text x="0.0" y="117.5" font-size="5.0" font-weight="bold" font-family="Arbeit Regular, Helvetica, Arial-Unicode, Arial, Sans-serif" fill="#000000">Created by Lulis Dian RP</text><text x="0.0" y="122.5" font-size="5.0" font-weight="bold" font-family="Arbeit Regular, Helvetica, Arial-Unicode, Arial, Sans-serif" fill="#000000">from Noun Project</text></svg>