<svg xmlns="http://www.w3.org/2000/svg" version="1.1" viewBox="-5.0 -10.0 110.0 135.0">
 <path d="m23.621 52.906h-18.562v6.5547l10.605 3.0625c0.30859 0.078124 0.57422 0.30859 0.68359 0.63281 0.40625 1.2148 1.2969 3.4805 1.8906 4.5742 0.16797 0.28516 0.1875 0.65234 0.015625 0.96484l-5.3516 9.6953 10.645 10.641 9.6953-5.3516v0.003906c0.26953-0.14844 0.60547-0.16406 0.90234-0.019532 1.4805 0.74219 3.0547 1.3906 4.6328 1.9219 0.29297 0.097656 0.53516 0.33203 0.625 0.65234l3.0703 10.637h15.055l3.0625-10.605c0.078125-0.30859 0.30859-0.57422 0.63281-0.68359 1.2148-0.40625 3.4805-1.2969 4.5742-1.8906 0.28516-0.16797 0.65234-0.1875 0.96484-0.015624l9.6953 5.3516 10.641-10.645-5.3516-9.6953h0.003906c-0.14844-0.26953-0.16406-0.60547-0.019531-0.90234 0.74219-1.4805 1.3906-3.0547 1.9219-4.6328 0.097656-0.29297 0.33203-0.53516 0.65234-0.625l10.637-3.0703v-6.5469l-18.566 0.10547c-0.57031 14.102-12.188 25.312-26.375 25.312-14.23 0-25.867-11.273-26.379-25.426zm7.1914-38.836h8.2344c1.2852 0 1.2852 1.9531 0 1.9531h-8.2344c0.16016-0.63672 0.16016-1.3125 0-1.9531zm38.586 1.8789h-7.9844c-1.2852 0-1.2852-1.9531 0-1.9531h7.9844c-0.16406 0.63672-0.16016 1.3125 0 1.9531zm-51.855 11.148v7.2773c0 1.2852-1.9531 1.2852-1.9531 0v-7.2773c0.63672 0.16016 1.3125 0.16016 1.9531 0zm66.16 0v7.2773c0 1.2852-1.9531 1.2852-1.9531 0v-7.2773c0.64062 0.16016 1.3164 0.16016 1.9531 0zm-59.02 17.332h-10.164c0.16016-0.63672 0.16016-1.3164 0-1.9531h10.824c-0.24219 0.63672-0.46094 1.2891-0.66016 1.9531zm49.969-1.9531h11.074c-0.16016 0.63672-0.16016 1.3125 0 1.9531h-10.414c-0.19531-0.66406-0.41406-1.3164-0.66016-1.9531zm-5.7969-9.0156c0.60547 0.61719 1.1797 1.2617 1.7227 1.9375l12.066-0.050782c-0.5-0.042968-0.89453-0.46094-0.89453-0.97266v-0.96875zm-8.6289-5.8711c0.66406 0.28125 1.3164 0.58594 1.9531 0.91797v-12.559h-0.76563c-1.2266 0-1.3125-1.8164-0.10547-1.9492-0.57812-0.0625-1.082 0.39062-1.082 0.97266zm-11.078-2.0391v-14.457c0.64844 0.16016 1.3047 0.16016 1.9531 0v14.469zm-11.078 2.832c0.63672-0.32422 1.2891-0.62109 1.9531-0.89453v-12.441c0 0.53906-0.4375 0.97656-0.97656 0.97656h-0.97656zm-8.6094 6.9688c0.55078-0.67969 1.1328-1.332 1.7461-1.9531h-13.664v0.97656c0 0.53906-0.4375 0.97656-0.97656 0.97656zm-21.719 10.957c1.5781 1.5781 4.1367 1.5781 5.7148 0 2.5391-2.5391 0.73047-6.8984-2.8555-6.8984-3.5898 0-5.3984 4.3594-2.8594 6.8984zm4.7812-23.133h0.003906c0 2.2383 1.8086 4.0391 4.0391 4.0391 3.5859 0 5.3984-4.3594 2.8555-6.8984-2.5391-2.5391-6.8984-0.72656-6.8984 2.8594zm11.512-10.984c-1.5781 1.5781-1.5781 4.1367 0 5.7148 2.5391 2.5391 6.8984 0.73047 6.8984-2.8555 0-3.5898-4.3594-5.3984-6.8984-2.8594zm23.234-7.8789c-1.5781 1.5781-1.5781 4.1367 0 5.7148 2.5391 2.5391 6.8984 0.73047 6.8984-2.8555 0-3.5898-4.3594-5.3984-6.8984-2.8594zm25.961 6.7031c-2.1836 0-3.957 1.7734-3.957 3.957 0 3.5117 4.2656 5.2852 6.7539 2.7969 2.4883-2.4844 0.71875-6.7539-2.7969-6.7539zm12.355 9.3047c-1.5781-1.5781-4.1367-1.5781-5.7148 0-2.5391 2.5391-0.73047 6.8984 2.8555 6.8984 3.5898 0 5.3984-4.3594 2.8594-6.8984zm8.1055 23.129c0-2.2305-1.8086-4.043-4.043-4.043-3.5859 0-5.3984 4.3594-2.8555 6.8984 2.5391 2.543 6.8984 0.73437 6.8984-2.8555zm-43.691-17.91c14.578 0 26.398 11.82 26.398 26.398s-11.82 26.398-26.398 26.398c-14.578-0.003907-26.398-11.824-26.398-26.402s11.82-26.395 26.398-26.395zm17.285 9.1094c9.5469 9.5469 9.5469 25.023 0 34.57s-25.023 9.5469-34.57 0-9.5469-25.023 0-34.57c9.5469-9.543 25.023-9.543 34.57 0zm-17.285 1.6484c8.6367 0 15.637 7 15.637 15.637 0 8.6367-7 15.637-15.637 15.637s-15.637-7-15.637-15.637c0-8.6328 7-15.637 15.637-15.637z" fill-rule="evenodd"/>
<text x="0.0" y="117.5" font-size="5.0" font-weight="bold" font-family="Arbeit Regular, Helvetica, Arial-Unicode, Arial, Sans-serif" fill="#000000">Created by Lulis Dian RP</text><text x="0.0" y="122.5" font-size="5.0" font-weight="bold" font-family="Arbeit Regular, Helvetica, Arial-Unicode, Arial, Sans-serif" fill="#000000">from Noun Project</text></svg>